{
    "asset" : {
        "generator" : "Khronos glTF Blender I/O v3.2.43",
        "version" : "2.0"
    },
    "scene" : 0,
    "scenes" : [
        {
            "name" : "Scene",
            "nodes" : [
                0
            ]
        }
    ],
    "nodes" : [
        {
            "mesh" : 0,
            "name" : "CR Tin V2A Bottom"
        }
    ],
    "meshes" : [
        {
            "name" : "CR Tin V2A Bottom",
            "primitives" : [
                {
                    "attributes" : {
                        "POSITION" : 0,
                        "NORMAL" : 1
                    },
                    "indices" : 2
                }
            ]
        }
    ],
    "accessors" : [
        {
            "bufferView" : 0,
            "componentType" : 5126,
            "count" : 54045,
            "max" : [
                105.12000274658203,
                62,
                0
            ],
            "min" : [
                -3.5236570605778894e-16,
                0,
                -13.399999618530273
            ],
            "type" : "VEC3"
        },
        {
            "bufferView" : 1,
            "componentType" : 5126,
            "count" : 54045,
            "type" : "VEC3"
        },
        {
            "bufferView" : 2,
            "componentType" : 5123,
            "count" : 55104,
            "type" : "SCALAR"
        }
    ],
    "bufferViews" : [
        {
            "buffer" : 0,
            "byteLength" : 648540,
            "byteOffset" : 0
        },
        {
            "buffer" : 0,
            "byteLength" : 648540,
            "byteOffset" : 648540
        },
        {
            "buffer" : 0,
            "byteLength" : 110208,
            "byteOffset" : 1297080
        }
    ],
    "buffers" : [
        {
            "byteLength" : 1407288,
            "uri" : "data:application/octet-stream;base64,"
        }
    ]
}
