{
    "asset" : {
        "generator" : "Khronos glTF Blender I/O v3.2.43",
        "version" : "2.0"
    },
    "scene" : 0,
    "scenes" : [
        {
            "name" : "Scene",
            "nodes" : [
                0
            ]
        }
    ],
    "nodes" : [
        {
            "mesh" : 0,
            "name" : "untitled.gltf"
        }
    ],
    "meshes" : [
        {
            "name" : "untitled.gltf",
            "primitives" : [
                {
                    "attributes" : {
                        "POSITION" : 0,
                        "NORMAL" : 1
                    },
                    "indices" : 2
                }
            ]
        }
    ],
    "accessors" : [
        {
            "bufferView" : 0,
            "componentType" : 5126,
            "count" : 87853,
            "max" : [
                105.506103515625,
                133.07858276367188,
                -37.64727020263672
            ],
            "min" : [
                0.15136972069740295,
                30.635583877563477,
                -123.96038818359375
            ],
            "type" : "VEC3"
        },
        {
            "bufferView" : 1,
            "componentType" : 5126,
            "count" : 87853,
            "type" : "VEC3"
        },
        {
            "bufferView" : 2,
            "componentType" : 5125,
            "count" : 90390,
            "type" : "SCALAR"
        }
    ],
    "bufferViews" : [
        {
            "buffer" : 0,
            "byteLength" : 1054236,
            "byteOffset" : 0
        },
        {
            "buffer" : 0,
            "byteLength" : 1054236,
            "byteOffset" : 1054236
        },
        {
            "buffer" : 0,
            "byteLength" : 361560,
            "byteOffset" : 2108472
        }
    ],
    "buffers" : [
        {
            "byteLength" : 2470032,
            "uri" : "data:application/octet-stream;base64,"
        }
    ]
}
