{
    "asset" : {
        "generator" : "Khronos glTF Blender I/O v3.2.43",
        "version" : "2.0"
    },
    "scene" : 0,
    "scenes" : [
        {
            "name" : "Scene",
            "nodes" : [
                0
            ]
        }
    ],
    "nodes" : [
        {
            "mesh" : 0,
            "name" : "V1A fully part 45 degree"
        }
    ],
    "meshes" : [
        {
            "name" : "V1A fully part 45 degree",
            "primitives" : [
                {
                    "attributes" : {
                        "POSITION" : 0,
                        "NORMAL" : 1
                    },
                    "indices" : 2
                }
            ]
        }
    ],
    "accessors" : [
        {
            "bufferView" : 0,
            "componentType" : 5126,
            "count" : 43291,
            "max" : [
                102.125,
                156.88426208496094,
                -37.64727020263672
            ],
            "min" : [
                0,
                0,
                -122.26551055908203
            ],
            "type" : "VEC3"
        },
        {
            "bufferView" : 1,
            "componentType" : 5126,
            "count" : 43291,
            "type" : "VEC3"
        },
        {
            "bufferView" : 2,
            "componentType" : 5123,
            "count" : 44526,
            "type" : "SCALAR"
        }
    ],
    "bufferViews" : [
        {
            "buffer" : 0,
            "byteLength" : 519492,
            "byteOffset" : 0
        },
        {
            "buffer" : 0,
            "byteLength" : 519492,
            "byteOffset" : 519492
        },
        {
            "buffer" : 0,
            "byteLength" : 89052,
            "byteOffset" : 1038984
        }
    ],
    "buffers" : [
        {
            "byteLength" : 1128036,
            "uri" : "data:application/octet-stream;base64,"
        }
    ]
}
